<mxfile host="app.diagrams.net" modified="2022-09-15T07:08:24.988Z" agent="5.0 (Macintosh)" etag="3RDP1IMC-JN6lYj_eSwX" version="20.3.0" type="github">
  <diagram id="lPHcJnsXkGskHf5I6h_B" name="Page-1">
    <mxGraphModel dx="1796" dy="518" grid="1" gridSize="10" guides="1" tooltips="1" connect="1" arrows="1" fold="1" page="1" pageScale="1" pageWidth="850" pageHeight="1100" background="none" math="0" shadow="0">
      <root>
        <mxCell id="0" />
        <mxCell id="1" parent="0" />
        <mxCell id="upZUjsw-5CPLim17uPPE-1" value="API Gateway (Kong, Traefik) with OpenID Connect plugin" style="rounded=1;whiteSpace=wrap;html=1;sketch=1;fillColor=#dae8fc;strokeColor=#6c8ebf;strokeWidth=2;glass=0;shadow=0;" vertex="1" parent="1">
          <mxGeometry x="40" y="200" width="270" height="100" as="geometry" />
        </mxCell>
        <mxCell id="upZUjsw-5CPLim17uPPE-3" value="" style="edgeStyle=orthogonalEdgeStyle;rounded=0;orthogonalLoop=1;jettySize=auto;html=1;" edge="1" parent="1" source="upZUjsw-5CPLim17uPPE-2" target="upZUjsw-5CPLim17uPPE-1">
          <mxGeometry relative="1" as="geometry" />
        </mxCell>
        <mxCell id="upZUjsw-5CPLim17uPPE-2" value="&lt;div&gt;Client&lt;/div&gt;" style="shape=umlActor;verticalLabelPosition=bottom;verticalAlign=top;html=1;shadow=0;glass=0;sketch=1;strokeWidth=2;fillColor=none;gradientColor=none;" vertex="1" parent="1">
          <mxGeometry x="-60" y="220" width="30" height="60" as="geometry" />
        </mxCell>
      </root>
    </mxGraphModel>
  </diagram>
</mxfile>
